<svg width="158" height="182" viewBox="0 0 158 182" fill="none" xmlns="http://www.w3.org/2000/svg">
<path d="M53.8331 30.6128C53.6494 30.4937 53.6112 30.3683 53.5366 30.1765C50.3524 21.9612 47.1701 13.7447 43.9885 5.52753C43.796 5.03289 43.8587 4.73071 44.3715 4.55579C50.0534 2.62297 55.8964 1.51331 61.8998 1.22806C62.4816 1.19984 63.0778 1.10706 63.0778 1.83492C63.0791 10.7304 63.0791 19.6265 63.0785 28.522C63.0785 28.9183 62.8628 29.1264 62.4866 29.1527C59.6792 29.3502 56.9521 29.8587 54.3058 30.678C54.1378 30.7301 53.9805 30.7081 53.8331 30.6128Z" fill="#183668"/>
<path d="M67.0356 29.0607C66.8131 28.9009 66.7541 28.756 66.7535 28.4683C66.7529 19.5659 66.7529 10.6635 66.7535 1.76111C66.7535 1.18747 67.3359 1.2044 67.7447 1.22258C73.8027 1.49279 79.699 2.59932 85.4341 4.54342C85.9363 4.71395 86.0692 4.97789 85.8799 5.46689C82.6888 13.7041 79.4984 21.9407 76.3073 30.1773C76.1242 30.6519 75.8992 30.7892 75.4114 30.6412C72.7357 29.8268 70.0255 29.3291 67.282 29.1485C67.1911 29.1422 67.109 29.1134 67.0356 29.0607Z" fill="#EB1C2D"/>
<path d="M42.0782 36.8323C42.0368 36.8097 42.0005 36.7809 41.9691 36.7458C35.9581 30.153 29.954 23.5671 23.9587 16.9888C23.6032 16.5988 23.7556 16.2929 24.1211 15.9869C28.8425 12.0341 34.0278 8.82991 39.6771 6.37485C40.0727 6.20245 40.3742 6.3573 40.5203 6.73471C43.7239 15.0014 46.9263 23.2681 50.1267 31.5354C50.2759 31.9184 50.2208 32.23 49.8421 32.4087C47.3331 33.5936 44.9934 35.05 42.8224 36.7784C42.5929 36.9608 42.3447 36.979 42.0782 36.8323Z" fill="#02558B"/>
<path d="M79.8689 32.3243C79.5623 32.1657 79.6118 31.8046 79.7278 31.5081C82.9189 23.2665 86.1112 15.0255 89.3048 6.7845C89.4759 6.34439 89.7549 6.19268 90.1913 6.38264C95.7377 8.7982 100.838 11.936 105.492 15.7966C105.992 16.2104 106.355 16.4718 105.822 17.0574C100.006 23.4376 94.1917 29.8191 88.3782 36.2013C88.061 36.5498 87.619 37.2238 87.0648 36.7849C85.4203 35.4859 83.6737 34.3424 81.8249 33.3538C81.1754 33.0058 80.5234 32.6629 79.8689 32.3243Z" fill="#D3A029"/>
<path d="M20.384 19.3804C20.9563 18.8193 21.6961 19.9515 22.0284 20.317C27.7711 26.6152 33.5131 32.9145 39.2545 39.2139C39.5567 39.5456 39.3755 39.8571 39.1003 40.148C37.3098 42.0439 35.6616 44.2306 34.157 46.7089C33.92 47.1013 33.542 46.9728 33.1796 46.7929C25.3267 42.8833 17.4744 38.9725 9.62272 35.0605C9.13748 34.8198 8.95881 34.5671 9.24218 34.0555C12.2702 28.5862 15.9842 23.6943 20.384 19.3804Z" fill="#5DBB46"/>
<path d="M110.474 20.4116C114.463 24.5017 117.837 29.0501 120.598 34.0567C120.812 34.4442 120.789 34.779 120.378 34.9846C112.445 38.9343 104.513 42.8845 96.5809 46.8354C96.1847 47.0329 95.8788 47.031 95.6437 46.6361C94.2782 44.339 92.5924 42.1222 90.5863 39.9844C90.3167 39.6966 90.4552 39.3618 90.7022 39.091C96.6461 32.569 102.59 26.0471 108.535 19.5258C108.773 19.2662 109.074 19.0938 109.382 19.3114C109.718 19.5465 110.18 20.1107 110.474 20.4116Z" fill="#279B48"/>
<path d="M29.0431 59.4784C20.2341 58.691 11.4283 57.854 2.62306 57.0303C2.06008 56.9782 1.85883 56.7833 1.93469 56.2203C2.75722 50.114 4.42924 44.2534 6.95075 38.6387C7.11187 38.2794 7.40339 38.055 7.78206 38.2437C15.7403 42.2059 23.6979 46.1693 31.6543 50.1328C32.0216 50.3152 32.189 50.5779 32.026 50.9722C30.9678 53.5264 30.2104 56.1689 29.7547 58.8985C29.6832 59.3236 29.4675 59.5167 29.0431 59.4784Z" fill="#007DBC"/>
<path d="M100.386 59.4101C100.247 59.3173 100.139 59.1907 100.11 59.0133C99.6579 56.261 98.9006 53.5972 97.8385 51.0205C97.7038 50.6952 97.7389 50.356 98.0617 50.1955C106.054 46.2145 114.047 42.2348 122.039 38.2556C122.463 38.0444 122.731 38.2795 122.906 38.6713C125.425 44.2842 127.094 50.1422 127.91 56.2454C127.978 56.7469 127.778 56.9801 127.28 57.0259C118.407 57.8497 109.547 58.6709 100.7 59.4891C100.586 59.5004 100.481 59.474 100.386 59.4101Z" fill="#C31F33"/>
<path d="M28.4657 63.1124C28.9785 63.1601 29.3014 63.2309 29.2889 63.819C29.2293 66.553 29.4788 69.2971 30.0368 72.0493C30.1145 72.4355 29.9666 72.6819 29.5923 72.7891C21.0961 75.2109 12.5994 77.6302 4.10198 80.0483C3.3108 80.2727 3.20924 79.9649 3.05313 79.296C1.68392 73.4198 1.15166 67.4658 1.45509 61.4348C1.47578 61.0122 1.61182 60.6235 2.09456 60.668C10.8847 61.4849 19.6749 62.2999 28.4657 63.1124Z" fill="#48773E"/>
<path d="M100.087 72.7259C99.7808 72.5359 99.7513 72.3146 99.8234 71.961C100.363 69.3273 100.605 66.6666 100.55 63.9783C100.541 63.5301 100.612 63.184 101.105 63.1376C109.963 62.3188 118.819 61.4982 127.676 60.6763C128.194 60.628 128.36 60.9076 128.384 61.3916C128.69 67.4239 128.139 73.4819 126.729 79.5663C126.593 80.1575 126.275 80.1995 125.734 80.0453C117.236 77.6272 108.731 75.2072 100.221 72.7854C100.173 72.7716 100.129 72.7516 100.087 72.7259Z" fill="#EF402B"/>
<path d="M31.1245 76.4002C31.2236 76.4623 31.2925 76.5481 31.3314 76.6579C32.1057 78.8283 33.0962 80.9216 34.303 82.9372C34.5513 83.3509 34.8008 83.7647 35.0503 84.1779C35.2434 84.497 35.214 84.781 34.9224 85.0023C27.8776 90.3255 20.8322 95.6482 13.7862 100.97C13.4175 101.248 13.0514 101.443 12.7348 100.99C9.19893 95.9353 6.45298 90.4227 4.49696 84.4518C4.2976 83.8425 4.70886 83.6788 5.23109 83.5303C13.6758 81.1341 22.1199 78.7355 30.5634 76.3331C30.796 76.2667 30.9302 76.2786 31.1245 76.4002Z" fill="#CF8D2A"/>
<path d="M94.9064 84.9832C94.618 84.7651 94.6055 84.4591 94.8017 84.1538C96.2963 81.8411 97.5163 79.3904 98.4617 76.8025C98.6209 76.3674 98.8554 76.2113 99.3049 76.3392C107.842 78.7691 116.38 81.1979 124.919 83.6266C125.432 83.7726 125.455 84.1269 125.302 84.5889C123.383 90.3968 120.686 95.816 117.209 100.846C116.902 101.291 116.63 101.398 116.186 101.061C109.086 95.7106 101.994 90.351 94.9064 84.9832Z" fill="#00AED9"/>
<path d="M29.3503 117.384C24.2835 113.966 19.7752 109.825 15.7666 104.995C15.3115 104.446 15.6118 104.189 16.0776 103.836C23.0873 98.5426 30.0964 93.2475 37.1048 87.9519C37.5386 87.6246 37.8082 87.8528 38.1242 88.2102C39.9417 90.2715 41.9309 92.0815 44.0932 93.6394C44.5295 93.9541 44.4254 94.2694 44.1703 94.6813C39.5404 102.16 34.9105 109.639 30.28 117.117C30.0393 117.506 29.7528 117.655 29.3503 117.384Z" fill="#F99D26"/>
<path d="M99.8422 117.434C99.7588 117.388 99.6917 117.325 99.6422 117.243C95.0882 109.889 90.5242 102.52 85.9488 95.1358C85.73 94.7816 85.1482 94.0712 85.6517 93.7095C87.8628 92.1184 89.9518 90.21 91.9191 87.9831C92.1535 87.7173 92.4933 87.7706 92.7692 87.9787C99.7444 93.2443 106.718 98.5118 113.692 103.78C114.14 104.119 114.569 104.397 114.121 104.943C110.178 109.751 105.638 113.906 100.499 117.408C100.287 117.552 100.068 117.561 99.8422 117.434Z" fill="#FDB713"/>
<path d="M33.7288 120.094C33.3445 119.877 33.0467 119.617 33.3238 119.171C38.0283 111.571 42.7334 103.972 47.4385 96.3726C47.6598 96.0153 48.0303 96.1093 48.3657 96.2849C50.7392 97.5243 53.3009 98.5105 56.0506 99.244C56.4744 99.3574 56.5007 99.7142 56.428 100.107C54.798 108.828 53.168 117.55 51.5373 126.27C51.4565 126.703 51.0665 126.754 50.6803 126.665C44.7101 125.294 39.0596 123.104 33.7288 120.094Z" fill="#E11484"/>
<path d="M79.2363 126.651C78.8112 126.749 78.3755 126.741 78.2765 126.206C76.6577 117.483 75.0334 108.76 73.404 100.037C73.3413 99.7005 73.4165 99.345 73.7638 99.2516C76.5813 98.488 79.1542 97.498 81.4832 96.2818C81.8368 96.0969 82.1866 96.0198 82.4173 96.3934C87.0666 103.9 91.7141 111.406 96.3602 118.913C96.5747 119.259 96.8047 119.706 96.3314 119.975C91.0125 123.017 85.3144 125.243 79.2363 126.651Z" fill="#8F1838"/>
<path d="M55.4249 127.522C55.1158 127.305 55.1127 127.112 55.1823 126.739C56.8098 118.03 58.4373 109.321 60.0654 100.613C60.1595 100.109 60.53 100.091 60.9839 100.14C63.5875 100.424 66.3071 100.413 69.1434 100.109C69.6073 100.059 69.7402 100.413 69.8167 100.821C71.4348 109.476 73.0523 118.13 74.6691 126.786C74.755 127.243 74.6114 127.539 74.1444 127.605C67.9378 128.492 61.7569 128.488 55.6017 127.592C55.5371 127.583 55.4782 127.559 55.4249 127.522Z" fill="#F36D25"/>
<path d="M34.7477 69.0606V63.1324H32.2851V60.9707H39.5299V63.1324H37.0698V69.0606H34.7477Z" fill="#C41226"/>
<path d="M40.6277 69.0606V60.5093H42.8445V63.2954C43.284 62.948 43.8313 62.7737 44.487 62.7737C45.2644 62.7737 45.8763 63.017 46.3227 63.5035C46.7703 63.9887 46.9948 64.647 46.9948 65.4796V69.0606H44.7754V65.7103C44.7754 65.3479 44.6927 65.0746 44.5272 64.8903C44.3617 64.7047 44.1322 64.6119 43.8401 64.6119C43.5304 64.6119 43.2871 64.7122 43.1103 64.9128C42.9329 65.1134 42.8445 65.3987 42.8445 65.768V69.0606H40.6277Z" fill="#C41226"/>
<path d="M48.4264 69.0606V62.9468H50.0213L50.2972 63.7091C50.489 63.4402 50.7272 63.2464 51.0119 63.1273C51.2977 63.007 51.6526 62.9468 52.0776 62.9468H52.7948V64.9354H52.0877C51.5962 64.9354 51.2325 65.057 50.9968 65.299C50.7611 65.5416 50.6432 65.9253 50.6432 66.4501V69.0606H48.4264Z" fill="#C41226"/>
<path d="M53.926 69.0604V62.9466H56.1428V69.0604H53.926ZM53.7053 60.8552C53.7053 60.4709 53.8307 60.1618 54.0814 59.9273C54.3322 59.6916 54.6494 59.5737 55.0344 59.5737C55.4206 59.5737 55.7378 59.6916 55.9873 59.9273C56.2381 60.1618 56.3635 60.4709 56.3635 60.8552C56.3635 61.2332 56.2381 61.5435 55.9873 61.7855C55.7378 62.0282 55.4206 62.1492 55.0344 62.1492C54.6494 62.1492 54.3322 62.0282 54.0814 61.7855C53.8307 61.5435 53.7053 61.2332 53.7053 60.8552Z" fill="#C41226"/>
<path d="M59.4378 69.0606L56.9752 62.9468H59.4027L60.0497 64.9705L60.5688 66.5403L61.0879 64.9705L61.7474 62.9468H64.1623L61.6897 69.0606H59.4378Z" fill="#C41226"/>
<path d="M68.0337 69.2333C67.3548 69.2333 66.7554 69.0966 66.2357 68.8246C65.7153 68.5506 65.3091 68.1713 65.0169 67.6861C64.7242 67.1996 64.5781 66.6372 64.5781 65.9984C64.5781 65.3583 64.7242 64.7972 65.0169 64.3157C65.3091 63.8342 65.7172 63.4574 66.2407 63.1847C66.7655 62.9107 67.3667 62.7734 68.0438 62.7734C68.776 62.7734 69.4054 62.9302 69.9321 63.2424C70.4599 63.5533 70.8606 63.9922 71.1333 64.5589C71.4072 65.1257 71.5251 65.7902 71.4869 66.5526H66.7723C66.8576 66.8836 67.0194 67.1344 67.2588 67.3049C67.4977 67.4742 67.771 67.5582 68.0789 67.5582C68.3177 67.5582 68.5378 67.5168 68.7384 67.4328C68.939 67.3475 69.1001 67.2315 69.2224 67.0842H71.3715C71.1019 67.7632 70.6769 68.2917 70.0951 68.6691C69.5133 69.0452 68.8262 69.2333 68.0337 69.2333ZM66.7849 65.3514H69.3728C69.2807 65.0655 69.1246 64.8423 68.9039 64.6818C68.6845 64.5201 68.4055 64.4386 68.0663 64.4386C67.7585 64.4386 67.4908 64.5182 67.2639 64.6768C67.0363 64.8342 66.8764 65.0592 66.7849 65.3514Z" fill="#C41226"/>
<path d="M72.6885 69.0606V60.9707H76.3748C77.03 60.9707 77.5942 61.0886 78.0676 61.3243C78.5403 61.5588 78.9058 61.8923 79.1634 62.3249C79.4224 62.7562 79.5521 63.2722 79.5521 63.8721C79.5521 64.4339 79.4368 64.9254 79.2061 65.3467C78.9754 65.7667 78.6443 66.0958 78.213 66.3347L79.7026 69.0606H77.0569L75.9009 66.761H75.0232V69.0606H72.6885ZM74.9755 64.9003H76.0639C76.4332 64.9003 76.7159 64.8119 76.9115 64.6345C77.1084 64.4577 77.2074 64.2075 77.2074 63.8847C77.2074 63.5605 77.1084 63.3123 76.9115 63.1399C76.7159 62.9662 76.4332 62.8791 76.0639 62.8791H74.9755V64.9003Z" fill="#C41226"/>
<path d="M80.9269 69.0604V62.9466H83.1438V69.0604H80.9269ZM80.7063 60.8552C80.7063 60.4709 80.8317 60.1618 81.0824 59.9273C81.3332 59.6916 81.6504 59.5737 82.0354 59.5737C82.4215 59.5737 82.7388 59.6916 82.9883 59.9273C83.2391 60.1618 83.3644 60.4709 83.3644 60.8552C83.3644 61.2332 83.2391 61.5435 82.9883 61.7855C82.7388 62.0282 82.4215 62.1492 82.0354 62.1492C81.6504 62.1492 81.3332 62.0282 81.0824 61.7855C80.8317 61.5435 80.7063 61.2332 80.7063 60.8552Z" fill="#C41226"/>
<path d="M87.1083 69.2333C86.5378 69.2333 86.0407 69.1443 85.6162 68.9675C85.1931 68.7907 84.8652 68.538 84.6332 68.2102C84.4025 67.8829 84.2872 67.503 84.2872 67.0717H86.4613C86.4613 67.2572 86.5222 67.4077 86.6444 67.5231C86.7679 67.6384 86.9303 67.6961 87.1309 67.6961C87.5002 67.6961 87.6851 67.5544 87.6851 67.2698C87.6851 67.1231 87.5961 66.9977 87.4193 66.8936C87.2419 66.7902 86.9491 66.6999 86.5416 66.6228C85.7792 66.4761 85.2225 66.2466 84.8715 65.9357C84.5204 65.6235 84.3448 65.2084 84.3448 64.6918C84.3448 64.0768 84.5755 63.6035 85.037 63.2725C85.4996 62.9402 86.1667 62.7734 87.0381 62.7734C87.8939 62.7734 88.554 62.9509 89.0192 63.3051C89.4857 63.6599 89.7377 64.1765 89.7765 64.8548H87.6751C87.6513 64.4687 87.4318 64.2756 87.0156 64.2756C86.8532 64.2756 86.7221 64.3125 86.6218 64.3859C86.5215 64.4599 86.4714 64.5614 86.4714 64.6918C86.4714 64.8392 86.5541 64.9589 86.7196 65.0504C86.8864 65.1426 87.2011 65.231 87.6625 65.3163C89.1333 65.6021 89.8693 66.2567 89.8693 67.2798C89.8693 67.8886 89.6267 68.3669 89.1421 68.7142C88.6569 69.0603 87.9791 69.2333 87.1083 69.2333Z" fill="#C41226"/>
<path d="M94.0757 69.2333C93.3968 69.2333 92.7974 69.0966 92.2777 68.8246C91.7574 68.5506 91.3511 68.1713 91.059 67.6861C90.7662 67.1996 90.6201 66.6372 90.6201 65.9984C90.6201 65.3583 90.7662 64.7972 91.059 64.3157C91.3511 63.8342 91.7592 63.4574 92.2827 63.1847C92.8075 62.9107 93.4087 62.7734 94.0858 62.7734C94.818 62.7734 95.4475 62.9302 95.9741 63.2424C96.502 63.5533 96.9026 63.9922 97.1753 64.5589C97.4492 65.1257 97.5671 65.7902 97.5289 66.5526H92.8144C92.8996 66.8836 93.0614 67.1344 93.3009 67.3049C93.5397 67.4742 93.8131 67.5582 94.1209 67.5582C94.3597 67.5582 94.5798 67.5168 94.7804 67.4328C94.981 67.3475 95.1421 67.2315 95.2644 67.0842H97.4135C97.1439 67.7632 96.7189 68.2917 96.1371 68.6691C95.5553 69.0452 94.8682 69.2333 94.0757 69.2333ZM92.8269 65.3514H95.4149C95.3227 65.0655 95.1666 64.8423 94.9459 64.6818C94.7265 64.5201 94.4475 64.4386 94.1083 64.4386C93.8005 64.4386 93.5328 64.5182 93.3059 64.6768C93.0783 64.8342 92.9184 65.0592 92.8269 65.3514Z" fill="#C41226"/>
<rect x="0.4" y="150.4" width="31.2" height="31.2" rx="15.6" fill="#01AED9"/>
<rect x="0.4" y="150.4" width="31.2" height="31.2" rx="15.6" stroke="#183668" stroke-width="0.8"/>
<path d="M16.8225 158C17.7225 158.002 18.1793 158.007 18.5737 158.018L18.7289 158.024C18.9081 158.03 19.0849 158.038 19.2985 158.048C20.1497 158.088 20.7305 158.222 21.2401 158.42C21.7681 158.623 22.2129 158.898 22.6577 159.342C23.0646 159.742 23.3794 160.226 23.5801 160.76C23.7777 161.27 23.9121 161.85 23.9521 162.702C23.9617 162.915 23.9697 163.092 23.9761 163.272L23.9809 163.427C23.9929 163.821 23.9977 164.278 23.9993 165.178L24.0001 165.774V166.822C24.002 167.406 23.9959 167.989 23.9817 168.573L23.9769 168.728C23.9705 168.908 23.9625 169.085 23.9529 169.298C23.9129 170.15 23.7769 170.73 23.5801 171.24C23.3794 171.774 23.0646 172.258 22.6577 172.658C22.2579 173.065 21.7741 173.379 21.2401 173.58C20.7305 173.778 20.1497 173.912 19.2985 173.952L18.7289 173.976L18.5737 173.981C18.1793 173.992 17.7225 173.998 16.8225 173.999L16.2257 174H15.1785C14.5947 174.002 14.0109 173.996 13.4273 173.982L13.2721 173.977C13.0822 173.97 12.8923 173.961 12.7025 173.952C11.8513 173.912 11.2705 173.778 10.7601 173.58C10.2264 173.379 9.74284 173.064 9.34329 172.658C8.93604 172.258 8.62098 171.774 8.42009 171.24C8.22249 170.73 8.08809 170.15 8.04809 169.298L8.02409 168.728L8.02009 168.573C8.00534 167.989 7.99867 167.406 8.00009 166.822V165.178C7.99787 164.594 8.00374 164.011 8.01769 163.427L8.02329 163.272C8.02969 163.092 8.03769 162.915 8.04729 162.702C8.08729 161.85 8.22169 161.27 8.41929 160.76C8.62064 160.226 8.93627 159.742 9.34409 159.342C9.74341 158.936 10.2266 158.621 10.7601 158.42C11.2705 158.222 11.8505 158.088 12.7025 158.048C12.9153 158.038 13.0929 158.03 13.2721 158.024L13.4273 158.019C14.0106 158.005 14.5942 157.999 15.1777 158.001L16.8225 158ZM16.0001 162C14.9392 162 13.9218 162.421 13.1717 163.172C12.4215 163.922 12.0001 164.939 12.0001 166C12.0001 167.061 12.4215 168.078 13.1717 168.828C13.9218 169.579 14.9392 170 16.0001 170C17.061 170 18.0784 169.579 18.8285 168.828C19.5787 168.078 20.0001 167.061 20.0001 166C20.0001 164.939 19.5787 163.922 18.8285 163.172C18.0784 162.421 17.061 162 16.0001 162ZM16.0001 163.6C16.3153 163.6 16.6274 163.662 16.9186 163.783C17.2098 163.903 17.4744 164.08 17.6973 164.303C17.9202 164.525 18.097 164.79 18.2176 165.081C18.3383 165.372 18.4004 165.684 18.4005 166C18.4005 166.315 18.3385 166.627 18.218 166.918C18.0974 167.209 17.9207 167.474 17.6978 167.697C17.475 167.92 17.2105 168.096 16.9193 168.217C16.6281 168.338 16.3161 168.4 16.0009 168.4C15.3644 168.4 14.7539 168.147 14.3038 167.697C13.8537 167.247 13.6009 166.637 13.6009 166C13.6009 165.363 13.8537 164.753 14.3038 164.303C14.7539 163.853 15.3644 163.6 16.0009 163.6M20.2009 160.8C19.9357 160.8 19.6813 160.905 19.4938 161.093C19.3062 161.28 19.2009 161.535 19.2009 161.8C19.2009 162.065 19.3062 162.32 19.4938 162.507C19.6813 162.695 19.9357 162.8 20.2009 162.8C20.4661 162.8 20.7205 162.695 20.908 162.507C21.0955 162.32 21.2009 162.065 21.2009 161.8C21.2009 161.535 21.0955 161.28 20.908 161.093C20.7205 160.905 20.4661 160.8 20.2009 160.8Z" fill="#183668"/>
<rect x="42.4" y="150.4" width="31.2" height="31.2" rx="15.6" fill="#01AED9"/>
<rect x="42.4" y="150.4" width="31.2" height="31.2" rx="15.6" stroke="#183668" stroke-width="0.8"/>
<path d="M62.6008 158.8H65.0544L59.6944 164.9L66 173.2H61.0624L57.196 168.166L52.7712 173.2H50.3152L56.0488 166.676L50 158.8H55.0624L58.5584 163.402L62.6008 158.8ZM61.74 171.738H63.1L54.3232 160.186H52.864L61.74 171.738Z" fill="#183668"/>
<rect x="84.4" y="150.4" width="31.2" height="31.2" rx="15.6" fill="#01AED9"/>
<rect x="84.4" y="150.4" width="31.2" height="31.2" rx="15.6" stroke="#183668" stroke-width="0.8"/>
<path fill-rule="evenodd" clip-rule="evenodd" d="M102.98 174V167.804H105.06L105.371 165.39H102.979V163.848C102.979 163.149 103.174 162.672 104.177 162.672H105.455V160.512C104.836 160.446 104.214 160.414 103.591 160.416C101.748 160.416 100.486 161.542 100.486 163.608V165.39H98.4V167.804H100.486V174H92.8832C92.3952 174 92 173.605 92 173.117V158.883C92 158.395 92.3952 158 92.8832 158H107.117C107.605 158 108 158.395 108 158.883V173.117C108 173.605 107.605 174 107.117 174H102.98Z" fill="#183668"/>
<rect x="126.4" y="150.4" width="31.2" height="31.2" rx="15.6" fill="#01AED9"/>
<rect x="126.4" y="150.4" width="31.2" height="31.2" rx="15.6" stroke="#183668" stroke-width="0.8"/>
<path d="M147.6 158.8C148.024 158.8 148.431 158.968 148.731 159.268C149.031 159.568 149.2 159.975 149.2 160.4V171.6C149.2 172.024 149.031 172.431 148.731 172.731C148.431 173.031 148.024 173.2 147.6 173.2H136.4C135.976 173.2 135.569 173.031 135.269 172.731C134.969 172.431 134.8 172.024 134.8 171.6V160.4C134.8 159.975 134.969 159.568 135.269 159.268C135.569 158.968 135.976 158.8 136.4 158.8H147.6ZM147.2 171.2V166.96C147.2 166.268 146.925 165.605 146.436 165.116C145.947 164.627 145.284 164.352 144.592 164.352C143.912 164.352 143.12 164.768 142.736 165.392V164.504H140.504V171.2H142.736V167.256C142.736 166.64 143.232 166.136 143.848 166.136C144.145 166.136 144.43 166.254 144.64 166.464C144.85 166.674 144.968 166.959 144.968 167.256V171.2H147.2ZM137.904 163.248C138.26 163.248 138.602 163.106 138.854 162.854C139.106 162.602 139.248 162.26 139.248 161.904C139.248 161.16 138.648 160.552 137.904 160.552C137.545 160.552 137.202 160.694 136.948 160.948C136.694 161.201 136.552 161.545 136.552 161.904C136.552 162.648 137.16 163.248 137.904 163.248ZM139.016 171.2V164.504H136.8V171.2H139.016Z" fill="#183668"/>
</svg>
