<svg width="78" height="78" viewBox="0 0 78 78" fill="none" xmlns="http://www.w3.org/2000/svg">
<path d="M32.2999 18.3678C32.1897 18.2963 32.1667 18.2211 32.122 18.106C30.2115 13.1768 28.3021 8.24688 26.3931 3.31658C26.2776 3.01979 26.3152 2.83849 26.6229 2.73354C30.032 1.57384 33.5378 0.908046 37.1399 0.736894C37.489 0.719967 37.8467 0.664296 37.8467 1.10101C37.8474 6.43831 37.8474 11.776 37.8471 17.1133C37.8471 17.351 37.7177 17.4759 37.492 17.4917C35.8075 17.6102 34.1713 17.9153 32.5835 18.4069C32.4827 18.4381 32.3883 18.4249 32.2999 18.3678Z" fill="#183668"/>
<path d="M40.2214 17.4364C40.0879 17.3405 40.0525 17.2536 40.0521 17.0809C40.0517 11.7395 40.0517 6.39806 40.0521 1.05663C40.0521 0.712442 40.4016 0.722599 40.6468 0.733507C44.2816 0.895631 47.8194 1.55955 51.2605 2.72601C51.5618 2.82833 51.6415 2.98669 51.5279 3.28009C49.6133 8.22242 47.699 13.1644 45.7844 18.1063C45.6745 18.3911 45.5395 18.4735 45.2469 18.3847C43.6414 17.8961 42.0153 17.5974 40.3692 17.4891C40.3147 17.4853 40.2654 17.468 40.2214 17.4364Z" fill="#EB1C2D"/>
<path d="M25.2469 22.0992C25.2221 22.0857 25.2003 22.0684 25.1815 22.0473C21.5749 18.0917 17.9724 14.1401 14.3752 10.1931C14.1619 9.95914 14.2534 9.77558 14.4727 9.59201C17.3055 7.22034 20.4167 5.2978 23.8062 3.82477C24.0436 3.72133 24.2245 3.81424 24.3122 4.04068C26.2343 9.00069 28.1558 13.9607 30.076 18.9211C30.1656 19.1509 30.1325 19.3379 29.9053 19.4451C28.3999 20.156 26.9961 21.0298 25.6934 22.0669C25.5558 22.1764 25.4068 22.1873 25.2469 22.0992Z" fill="#02558B"/>
<path d="M47.9213 19.3947C47.7374 19.2995 47.7671 19.0828 47.8367 18.9049C49.7513 13.96 51.6667 9.01537 53.5829 4.07078C53.6856 3.80671 53.853 3.71568 54.1148 3.82966C57.4426 5.27899 60.5027 7.16166 63.2953 9.47804C63.5951 9.7263 63.8128 9.88316 63.4931 10.2345C60.0035 14.0626 56.515 17.8916 53.0269 21.7208C52.8366 21.93 52.5714 22.3343 52.2389 22.071C51.2522 21.2916 50.2042 20.6055 49.0949 20.0123C48.7052 19.8036 48.314 19.5978 47.9213 19.3947Z" fill="#D3A029"/>
<path d="M12.2304 11.6282C12.5738 11.2915 13.0177 11.9708 13.217 12.1901C16.6626 15.969 20.1079 19.7486 23.5527 23.5283C23.734 23.7273 23.6253 23.9142 23.4602 24.0887C22.3859 25.2262 21.397 26.5383 20.4942 28.0252C20.352 28.2607 20.1252 28.1836 19.9078 28.0756C15.196 25.7299 10.4846 23.3834 5.77364 21.0362C5.48249 20.8918 5.37529 20.7402 5.54531 20.4332C7.36215 17.1516 9.59051 14.2165 12.2304 11.6282Z" fill="#5DBB46"/>
<path d="M66.2846 12.2469C68.6777 14.701 70.7022 17.43 72.3588 20.434C72.487 20.6665 72.4735 20.8673 72.2267 20.9907C67.4672 23.3605 62.7077 25.7307 57.9486 28.1012C57.7108 28.2197 57.5273 28.2186 57.3862 27.9816C56.5669 26.6034 55.5554 25.2733 54.3517 23.9906C54.19 23.8179 54.2731 23.617 54.4213 23.4545C57.9877 19.5414 61.554 15.6282 65.1211 11.7154C65.2641 11.5597 65.4442 11.4562 65.6289 11.5868C65.8306 11.7278 66.1082 12.0664 66.2846 12.2469Z" fill="#279B48"/>
<path d="M17.4259 35.6872C12.1405 35.2147 6.85697 34.7126 1.57384 34.2183C1.23605 34.1871 1.1153 34.0701 1.16081 33.7323C1.65433 30.0685 2.65754 26.5522 4.17045 23.1833C4.26712 22.9678 4.44204 22.8331 4.66923 22.9464C9.44418 25.3237 14.2187 27.7017 18.9926 30.0798C19.213 30.1893 19.3134 30.3469 19.2156 30.5835C18.5807 32.1159 18.1263 33.7014 17.8528 35.3392C17.8099 35.5943 17.6805 35.7101 17.4259 35.6872Z" fill="#007DBC"/>
<path d="M60.2314 35.6462C60.1483 35.5905 60.0832 35.5145 60.0659 35.4081C59.7947 33.7567 59.3403 32.1585 58.7031 30.6124C58.6222 30.4172 58.6433 30.2137 58.837 30.1174C63.6327 27.7288 68.4279 25.341 73.2235 22.9535C73.4778 22.8267 73.6384 22.9678 73.7438 23.2029C75.2552 26.5706 76.2561 30.0854 76.7463 33.7473C76.7865 34.0483 76.6669 34.1882 76.3682 34.2157C71.0445 34.7099 65.7282 35.2027 60.4199 35.6936C60.3514 35.7003 60.2886 35.6845 60.2314 35.6462Z" fill="#C31F33"/>
<path d="M17.0794 37.8674C17.3871 37.896 17.5808 37.9385 17.5733 38.2913C17.5376 39.9317 17.6873 41.5782 18.0221 43.2295C18.0687 43.4612 17.9799 43.6091 17.7554 43.6734C12.6577 45.1265 7.55963 46.5781 2.46119 48.0289C1.98648 48.1636 1.92554 47.9789 1.83188 47.5775C1.01035 44.0518 0.690992 40.4794 0.873052 36.8608C0.885466 36.6073 0.967092 36.374 1.25673 36.4008C6.53084 36.8909 11.8049 37.3799 17.0794 37.8674Z" fill="#48773E"/>
<path d="M60.052 43.6354C59.8685 43.5214 59.8508 43.3886 59.894 43.1765C60.2175 41.5962 60.3627 39.9998 60.33 38.3869C60.3247 38.1179 60.3672 37.9103 60.6633 37.8824C65.9776 37.3912 71.2916 36.8988 76.6056 36.4056C76.9167 36.3767 77.016 36.5444 77.0303 36.8348C77.2142 40.4542 76.8832 44.089 76.0376 47.7396C75.956 48.0944 75.7652 48.1196 75.4406 48.027C70.3414 46.5762 65.2389 45.1242 60.1325 43.6711C60.1039 43.6628 60.0772 43.6508 60.052 43.6354Z" fill="#EF402B"/>
<path d="M18.6747 45.84C18.7341 45.8773 18.7755 45.9288 18.7988 45.9946C19.2634 47.2969 19.8577 48.5529 20.5818 49.7622C20.7308 50.0105 20.8805 50.2588 21.0302 50.5067C21.1461 50.6981 21.1284 50.8685 20.9535 51.0013C16.7266 54.1953 12.4993 57.3888 8.2717 60.582C8.05052 60.7487 7.83084 60.8657 7.64088 60.5937C5.51935 57.5611 3.87178 54.2536 2.69817 50.671C2.57856 50.3054 2.82531 50.2072 3.13865 50.1181C8.20549 48.6804 13.272 47.2412 18.338 45.7998C18.4776 45.7599 18.5581 45.7671 18.6747 45.84Z" fill="#CF8D2A"/>
<path d="M56.9438 50.99C56.7708 50.8591 56.7633 50.6755 56.881 50.4924C57.7778 49.1047 58.5098 47.6343 59.077 46.0815C59.1726 45.8205 59.3133 45.7268 59.583 45.8036C64.7055 47.2615 69.828 48.7188 74.9512 50.176C75.2589 50.2637 75.2729 50.4762 75.1815 50.7534C74.03 54.2381 72.4114 57.4896 70.3253 60.5075C70.1409 60.7746 69.9781 60.8386 69.7114 60.6369C65.4518 57.4264 61.1963 54.2107 56.9438 50.99Z" fill="#00AED9"/>
<path d="M17.6102 70.4306C14.5701 68.3798 11.8651 65.8953 9.45998 62.997C9.18689 62.6678 9.36707 62.5132 9.64656 62.3014C13.8524 59.1256 18.0578 55.9485 22.2629 52.7711C22.5232 52.5748 22.6849 52.7117 22.8745 52.9261C23.965 54.1629 25.1585 55.2489 26.4559 56.1836C26.7177 56.3725 26.6553 56.5617 26.5022 56.8088C23.7243 61.296 20.9463 65.7832 18.168 70.2703C18.0236 70.5036 17.8517 70.5927 17.6102 70.4306Z" fill="#F99D26"/>
<path d="M59.9053 70.4607C59.8553 70.4328 59.8151 70.3949 59.7853 70.346C57.0529 65.9336 54.3145 61.5123 51.5693 57.0815C51.438 56.869 51.089 56.4428 51.391 56.2258C52.7177 55.2711 53.9711 54.126 55.1515 52.7899C55.2921 52.6304 55.496 52.6624 55.6615 52.7873C59.8467 55.9466 64.031 59.1071 68.215 62.268C68.484 62.4715 68.7413 62.6381 68.4723 62.9661C66.107 65.8505 63.3825 68.3437 60.2992 70.4449C60.1724 70.5314 60.0408 70.5367 59.9053 70.4607Z" fill="#FDB713"/>
<path d="M20.2373 72.0567C20.0067 71.9266 19.828 71.7705 19.9943 71.5026C22.817 66.9428 25.64 62.3831 28.4631 57.8237C28.5959 57.6093 28.8182 57.6657 29.0194 57.771C30.4435 58.5147 31.9805 59.1064 33.6304 59.5465C33.8846 59.6145 33.9004 59.8286 33.8568 60.0644C32.8788 65.2972 31.9008 70.5299 30.9224 75.7622C30.8739 76.0222 30.6399 76.0523 30.4082 75.9992C26.826 75.1766 23.4357 73.8623 20.2373 72.0567Z" fill="#E11484"/>
<path d="M47.5418 75.9906C47.2867 76.0496 47.0253 76.0444 46.9659 75.7239C45.9946 70.4896 45.02 65.2558 44.0424 60.0223C44.0048 59.8203 44.0499 59.607 44.2583 59.551C45.9488 59.0928 47.4925 58.4989 48.8899 57.7691C49.1021 57.6582 49.312 57.6119 49.4504 57.8361C52.24 62.3398 55.0284 66.8435 57.8161 71.3477C57.9448 71.5557 58.0828 71.8235 57.7988 71.9852C54.6075 73.8104 51.1886 75.1457 47.5418 75.9906Z" fill="#8F1838"/>
<path d="M33.2549 76.5131C33.0695 76.3829 33.0676 76.267 33.1094 76.0432C34.0859 70.818 35.0624 65.5928 36.0393 60.3676C36.0957 60.0656 36.318 60.0543 36.5903 60.084C38.1525 60.2544 39.7843 60.248 41.486 60.0656C41.7644 60.0351 41.8441 60.248 41.89 60.4925C42.8609 65.6854 43.8314 70.8782 44.8015 76.0714C44.853 76.3457 44.7669 76.5232 44.4866 76.5631C40.7627 77.0953 37.0541 77.0927 33.361 76.5552C33.3223 76.5495 33.2869 76.5352 33.2549 76.5131Z" fill="#F36D25"/>
<path d="M20.8486 41.4363V37.8793H19.3711V36.5824H23.7179V37.8793H22.2419V41.4363H20.8486Z" fill="#C41226"/>
<path d="M24.3766 41.4363V36.3055H25.7067V37.9772C25.9704 37.7688 26.2988 37.6642 26.6922 37.6642C27.1587 37.6642 27.5258 37.8101 27.7936 38.102C28.0622 38.3932 28.1968 38.7882 28.1968 39.2877V41.4363H26.8653V39.4261C26.8653 39.2087 26.8156 39.0447 26.7163 38.9341C26.617 38.8228 26.4793 38.7671 26.304 38.7671C26.1182 38.7671 25.9723 38.8273 25.8662 38.9476C25.7597 39.068 25.7067 39.2392 25.7067 39.4607V41.4363H24.3766Z" fill="#C41226"/>
<path d="M29.0558 41.4363V37.768H30.0128L30.1783 38.2254C30.2934 38.064 30.4363 37.9478 30.6071 37.8763C30.7786 37.8041 30.9916 37.768 31.2466 37.768H31.6769V38.9612H31.2526C30.9577 38.9612 30.7395 39.0342 30.5981 39.1793C30.4567 39.3249 30.3859 39.5551 30.3859 39.87V41.4363H29.0558Z" fill="#C41226"/>
<path d="M32.3556 41.4363V37.768H33.6857V41.4363H32.3556ZM32.2232 36.5131C32.2232 36.2825 32.2984 36.0971 32.4489 35.9564C32.5993 35.815 32.7897 35.7443 33.0206 35.7443C33.2523 35.7443 33.4427 35.815 33.5924 35.9564C33.7428 36.0971 33.8181 36.2825 33.8181 36.5131C33.8181 36.74 33.7428 36.9261 33.5924 37.0713C33.4427 37.2169 33.2523 37.2895 33.0206 37.2895C32.7897 37.2895 32.5993 37.2169 32.4489 37.0713C32.2984 36.9261 32.2232 36.74 32.2232 36.5131Z" fill="#C41226"/>
<path d="M35.6627 41.4363L34.1851 37.768H35.6416L36.0298 38.9822L36.3413 39.9241L36.6527 38.9822L37.0484 37.768H38.4974L37.0138 41.4363H35.6627Z" fill="#C41226"/>
<path d="M40.8202 41.5401C40.4129 41.5401 40.0533 41.4581 39.7414 41.2949C39.4292 41.1305 39.1855 40.9029 39.0102 40.6118C38.8345 40.3199 38.7469 39.9824 38.7469 39.5991C38.7469 39.2151 38.8345 38.8784 39.0102 38.5895C39.1855 38.3006 39.4303 38.0746 39.7444 37.9109C40.0593 37.7466 40.42 37.6642 40.8263 37.6642C41.2656 37.6642 41.6433 37.7582 41.9592 37.9456C42.276 38.1321 42.5163 38.3954 42.68 38.7355C42.8443 39.0755 42.9151 39.4743 42.8921 39.9317H40.0634C40.1146 40.1303 40.2116 40.2807 40.3553 40.3831C40.4986 40.4846 40.6626 40.535 40.8473 40.535C40.9906 40.535 41.1227 40.5102 41.243 40.4598C41.3634 40.4086 41.4601 40.339 41.5334 40.2506H42.8229C42.6612 40.658 42.4061 40.9751 42.057 41.2016C41.708 41.4273 41.2957 41.5401 40.8202 41.5401ZM40.0709 39.2109H41.6237C41.5684 39.0394 41.4748 38.9055 41.3423 38.8092C41.2107 38.7122 41.0433 38.6633 40.8398 38.6633C40.6551 38.6633 40.4945 38.711 40.3583 38.8062C40.2218 38.9006 40.1258 39.0357 40.0709 39.2109Z" fill="#C41226"/>
<path d="M43.6131 41.4363V36.5824H45.8249C46.218 36.5824 46.5565 36.6531 46.8405 36.7945C47.1242 36.9352 47.3435 37.1353 47.4981 37.3949C47.6534 37.6536 47.7313 37.9632 47.7313 38.3232C47.7313 38.6602 47.6621 38.9552 47.5236 39.2079C47.3852 39.46 47.1866 39.6574 46.9278 39.8008L47.8216 41.4363H46.2342L45.5405 40.0565H45.0139V41.4363H43.6131ZM44.9853 38.9401H45.6383C45.8599 38.9401 46.0295 38.8871 46.1469 38.7806C46.265 38.6745 46.3245 38.5245 46.3245 38.3307C46.3245 38.1363 46.265 37.9873 46.1469 37.8839C46.0295 37.7797 45.8599 37.7274 45.6383 37.7274H44.9853V38.9401Z" fill="#C41226"/>
<path d="M48.5562 41.4363V37.768H49.8863V41.4363H48.5562ZM48.4238 36.5131C48.4238 36.2825 48.499 36.0971 48.6495 35.9564C48.7999 35.815 48.9903 35.7443 49.2212 35.7443C49.4529 35.7443 49.6433 35.815 49.793 35.9564C49.9434 36.0971 50.0187 36.2825 50.0187 36.5131C50.0187 36.74 49.9434 36.9261 49.793 37.0713C49.6433 37.2169 49.4529 37.2895 49.2212 37.2895C48.9903 37.2895 48.7999 37.2169 48.6495 37.0713C48.499 36.9261 48.4238 36.74 48.4238 36.5131Z" fill="#C41226"/>
<path d="M52.265 41.5401C51.9227 41.5401 51.6244 41.4867 51.3697 41.3806C51.1158 41.2745 50.9191 41.123 50.7799 40.9262C50.6415 40.7299 50.5723 40.5019 50.5723 40.2431H51.8768C51.8768 40.3545 51.9133 40.4447 51.9866 40.514C52.0607 40.5832 52.1582 40.6178 52.2785 40.6178C52.5001 40.6178 52.6111 40.5328 52.6111 40.362C52.6111 40.274 52.5576 40.1987 52.4516 40.1363C52.3451 40.0742 52.1694 40.0201 51.9249 39.9738C51.4675 39.8858 51.1335 39.7481 50.9229 39.5615C50.7122 39.3742 50.6069 39.1252 50.6069 38.8152C50.6069 38.4462 50.7453 38.1622 51.0222 37.9636C51.2998 37.7642 51.7 37.6642 52.2229 37.6642C52.7363 37.6642 53.1324 37.7706 53.4115 37.9832C53.6914 38.1961 53.8426 38.506 53.8659 38.913H52.605C52.5907 38.6813 52.4591 38.5655 52.2093 38.5655C52.1119 38.5655 52.0333 38.5877 51.9731 38.6317C51.9129 38.676 51.8828 38.737 51.8828 38.8152C51.8828 38.9036 51.9325 38.9755 52.0318 39.0304C52.1318 39.0857 52.3207 39.1387 52.5975 39.1899C53.48 39.3614 53.9216 39.7541 53.9216 40.368C53.9216 40.7333 53.776 41.0203 53.4852 41.2287C53.1941 41.4363 52.7875 41.5401 52.265 41.5401Z" fill="#C41226"/>
<path d="M56.4455 41.5401C56.0381 41.5401 55.6785 41.4581 55.3666 41.2949C55.0544 41.1305 54.8107 40.9029 54.6354 40.6118C54.4597 40.3199 54.3721 39.9824 54.3721 39.5991C54.3721 39.2151 54.4597 38.8784 54.6354 38.5895C54.8107 38.3006 55.0555 38.0746 55.3696 37.9109C55.6845 37.7466 56.0452 37.6642 56.4515 37.6642C56.8908 37.6642 57.2685 37.7582 57.5845 37.9456C57.9012 38.1321 58.1415 38.3954 58.3052 38.7355C58.4696 39.0755 58.5403 39.4743 58.5173 39.9317H55.6886C55.7398 40.1303 55.8368 40.2807 55.9805 40.3831C56.1238 40.4846 56.2878 40.535 56.4725 40.535C56.6158 40.535 56.7479 40.5102 56.8683 40.4598C56.9886 40.4086 57.0853 40.339 57.1586 40.2506H58.4481C58.2864 40.658 58.0313 40.9751 57.6823 41.2016C57.3332 41.4273 56.9209 41.5401 56.4455 41.5401ZM55.6961 39.2109H57.2489C57.1936 39.0394 57.1 38.9055 56.9676 38.8092C56.8359 38.7122 56.6685 38.6633 56.465 38.6633C56.2803 38.6633 56.1197 38.711 55.9835 38.8062C55.847 38.9006 55.7511 39.0357 55.6961 39.2109Z" fill="#C41226"/>
</svg>
