<svg width="2218" height="2188" viewBox="0 0 2218 2188" fill="none" xmlns="http://www.w3.org/2000/svg">
<g opacity="0.1" clip-path="url(#clip0_245_451)">
<path d="M721.83 1377.86C721.83 1363.45 721.742 1352.73 723.655 1340.56C725.185 1330.66 729.392 1320.76 732.834 1311.24C735.512 1304.01 738.189 1296.78 741.632 1289.54C743.927 1284.59 746.604 1280.02 750.046 1275.45C759.609 1262.51 768.788 1248.81 779.115 1236.63C787.53 1226.73 798.239 1218.73 807.801 1210.36C818.128 1201.6 828.455 1192.84 839.164 1184.09C848.727 1176.47 858.286 1169.24 867.85 1161.63C877.798 1153.64 887.737 1146.4 897.301 1137.65C909.925 1126.22 922.166 1114.81 934.023 1102.62C943.195 1093.86 949.316 1082.83 951.617 1070.26C953.143 1062.27 955.053 1053.9 953.91 1046.28C951.992 1032.2 947.406 1018.49 938.609 1006.31C932.489 997.936 926.369 990.322 917.572 984.609C911.068 980.422 904.189 975.852 896.917 973.95C886.595 971.281 875.496 970.139 865.173 970.522C855.993 970.906 846.431 974.334 837.252 976.611C832.28 977.753 826.925 978.896 822.335 981.181C818.51 982.707 815.068 985.751 811.243 988.037C806.271 990.697 800.916 992.982 796.327 996.026C785.617 1003.27 774.142 1010.5 764.581 1018.87C751.576 1029.91 740.102 1042.86 727.48 1054.27C715.24 1065.32 703.001 1077.12 689.614 1086.25C673.55 1097.29 655.956 1106.81 638.362 1115.95C630.712 1120.14 621.915 1121.28 613.883 1124.32C602.791 1128.51 591.699 1130.03 580.224 1132.32C556.128 1137.65 531.649 1135.74 507.553 1135.36C506.405 1135.36 505.258 1135.36 504.494 1135.36C494.931 1134.22 485.751 1132.7 476.19 1131.18C470.452 1130.03 464.333 1129.27 458.978 1127.37C449.033 1123.94 439.089 1119.75 429.527 1115.56C420.347 1111.38 411.168 1107.19 403.136 1101.86C386.306 1090.44 370.624 1077.12 357.621 1061.5C349.588 1051.99 341.939 1041.71 335.819 1031.05C330.464 1021.91 326.639 1011.64 323.197 1001.36C318.99 987.278 315.929 972.808 312.105 958.721C306.368 936.645 309.045 913.802 309.045 891.717C309.045 874.586 313.635 857.839 318.99 841.469C321.667 832.713 323.579 823.957 327.787 815.963C333.906 803.781 341.174 792.36 348.441 780.559C353.413 772.564 358.768 764.57 364.887 757.336C373.302 747.82 382.099 738.683 392.044 731.068C406.96 719.267 423.024 708.608 439.089 698.33C444.826 694.522 452.094 692.619 458.213 689.954C466.627 686.528 475.042 682.341 483.457 679.295C489.193 677.392 494.931 676.249 501.051 675.107C512.142 672.823 523.235 670.158 534.327 668.635C542.359 667.494 550.773 667.494 559.188 667.494C568.367 667.494 577.547 666.732 586.727 667.874C598.201 669.397 609.676 672.062 621.15 673.966C628.035 675.107 634.537 676.63 641.421 678.153C648.688 680.056 655.956 682.341 663.606 684.625C664.753 684.625 665.518 685.386 666.665 685.386C675.08 686.147 683.112 689.574 690.761 692.239C696.116 694.142 701.471 694.903 706.826 696.426C723.273 700.614 740.102 704.42 756.549 708.608C766.11 710.892 776.055 713.177 785.617 715.461C791.736 716.984 798.239 718.126 804.358 719.267C811.626 720.79 818.893 721.552 826.16 723.075C855.993 730.308 885.828 730.688 916.046 729.546C927.136 729.165 937.842 728.024 948.557 726.12C958.88 724.216 969.211 722.313 979.151 718.506C997.128 712.035 1014.72 705.182 1031.17 694.522C1044.94 685.386 1056.41 674.346 1065.59 661.403C1073.62 649.982 1080.51 637.038 1078.59 621.811C1078.22 618.004 1078.59 614.197 1078.59 610.01C1078.59 598.589 1072.86 589.452 1067.89 579.554C1063.3 570.037 1056.41 562.423 1048 556.713C1041.11 552.144 1032.7 550.622 1025.43 546.434C1017.02 541.485 1007.83 544.911 1000.19 542.246C987.948 538.44 975.707 538.82 964.233 540.343C942.437 543.769 920.248 541.105 898.452 544.15C890.414 545.292 883.151 543.008 875.121 543.388C866.699 543.388 858.286 543.388 850.256 542.628C843.372 541.485 837.252 537.679 830.367 536.536C819.657 534.633 810.479 530.064 801.299 524.735C791.355 519.405 781.792 512.934 774.908 503.797C767.258 493.899 760.373 482.859 753.488 472.2C751.194 468.774 750.429 464.586 749.282 460.779C747.752 454.688 747.369 447.835 745.074 441.744C738.189 425.755 742.014 409.005 742.014 392.635C742.014 384.641 745.839 376.647 748.134 368.652C749.664 364.084 750.429 359.135 752.724 354.947C757.696 345.811 763.051 337.054 768.788 328.299C776.82 315.736 789.059 306.98 800.916 297.844C805.888 294.036 812.008 291.372 817.745 288.707C825.395 284.9 833.045 281.474 841.077 278.048C842.989 277.286 845.667 278.048 847.961 277.286C856.76 275.002 865.941 272.718 874.738 270.434C877.414 269.672 880.474 270.434 883.535 269.672C899.978 268.531 915.279 262.82 929.045 254.825C942.82 246.831 950.083 233.506 956.587 219.041C959.647 212.188 958.88 205.716 960.414 199.245C962.324 191.25 960.414 182.875 959.264 175.642C957.354 166.886 952.76 158.511 948.174 150.516C942.82 140.999 935.933 132.624 926.752 126.533C917.572 120.442 909.158 113.589 899.211 109.021C887.737 103.311 875.496 99.1235 864.023 94.5548C863.639 94.5548 863.264 94.5548 862.88 94.5548C853.316 93.0319 843.372 90.7476 833.809 90.3673C818.51 89.6058 803.211 89.2255 787.912 90.3673C776.055 91.509 764.963 94.9351 753.488 100.265C739.719 107.118 728.245 116.254 719.065 127.675C713.328 134.527 709.503 142.902 704.913 150.897C701.854 156.988 699.176 163.079 696.882 169.551C694.586 176.022 691.909 182.875 690.761 189.728C687.702 205.716 685.407 222.086 683.494 238.456C681.964 250.638 680.817 262.82 679.669 275.002C678.522 288.326 677.758 302.031 675.845 315.355C674.315 327.156 671.255 338.958 668.961 350.379C667.43 358.754 667.048 367.89 664.37 375.885C658.251 391.874 653.279 408.244 644.482 423.471C634.919 439.08 623.445 452.404 609.676 464.205C601.643 471.057 591.699 475.245 582.137 480.575C567.603 488.189 551.539 491.615 535.857 493.899C522.469 495.802 508.317 493.899 494.166 492.376C487.664 491.996 481.545 490.092 475.424 488.189C468.157 485.904 460.89 483.24 454.005 479.813C447.886 476.768 441.766 473.341 436.029 469.535C429.909 465.728 424.172 462.302 418.435 458.114C408.872 450.881 398.928 444.029 389.748 436.034C376.362 424.613 363.357 412.05 349.971 400.249C336.966 388.828 323.962 377.027 310.575 365.987C302.543 359.515 294.128 352.282 284.566 348.475C264.295 340.862 242.876 335.913 221.075 343.145C216.484 344.668 211.512 345.43 206.54 346.953C188.946 353.043 174.794 362.561 165.232 379.311C159.878 388.828 156.817 398.726 153.757 409.005C150.315 420.425 150.315 431.085 151.081 442.125C151.462 450.119 155.287 457.733 157.965 465.348C159.112 469.154 160.259 472.961 161.79 476.768C166.762 486.666 171.352 496.945 177.089 506.462C182.826 515.979 189.329 525.116 195.066 534.633C202.332 546.434 210.365 557.855 217.25 569.656C224.134 581.457 230.253 593.259 236.756 605.061C241.728 614.197 244.405 624.095 247.848 633.993C255.498 657.596 258.557 681.198 257.41 705.563C256.645 718.506 253.968 731.45 251.673 744.393C250.526 751.246 248.996 758.479 247.083 764.95C245.554 770.661 242.876 776.371 240.581 782.081C239.051 786.649 237.903 791.598 235.608 795.786C231.402 804.542 226.811 813.298 222.222 821.674C217.25 830.049 212.278 838.424 206.923 846.418C203.48 851.748 198.89 856.313 195.066 861.642C182.826 877.63 167.909 890.574 151.462 902C139.988 909.99 127.749 917.605 115.127 924.46C105.947 929.789 95.6203 933.592 85.676 937.404C80.3211 939.689 74.5839 940.832 68.8466 942.35C61.5795 944.635 54.3124 947.304 47.4277 949.589C46.6627 949.589 46.2802 949.589 45.5153 949.589C33.2759 951.107 21.0365 953.008 8.79707 954.534C5.73722 954.918 2.67737 955.293 0 956.061C0 930.548 0 905.428 0 879.916C8.41459 878.398 16.4467 877.63 24.8613 875.729C32.1284 873.827 39.0131 871.167 45.8978 868.882C49.7226 867.739 53.9299 866.597 58.1372 865.07C66.1693 861.643 74.5839 858.598 82.2335 854.412C90.2654 850.225 98.2978 845.276 105.947 839.947C118.569 831.19 130.044 820.531 139.223 807.968C145.343 799.593 152.993 791.598 157.2 782.081C163.32 768.757 169.822 755.814 173.647 741.728C179.384 720.41 181.296 698.711 179.384 677.011C178.236 662.545 173.647 648.839 166.38 636.277C160.642 626.379 156.435 615.339 150.315 605.822C142.665 593.259 133.868 581.457 125.836 569.276C120.482 560.901 114.744 552.525 109.772 544.15C102.505 531.207 95.2376 517.883 88.3535 504.558C86.0587 500.371 85.2933 495.041 83.7634 490.473C81.4685 484.001 79.1736 477.529 76.8788 470.677C76.8788 469.915 76.8788 469.535 76.8788 468.774C75.7313 453.927 73.4364 439.08 73.4364 423.852C73.4364 414.335 74.9663 404.437 77.2612 394.92C80.3211 382.357 83.3809 369.413 88.7353 357.992C94.8557 344.288 100.975 329.821 113.214 319.543C120.864 312.691 127.366 304.316 135.016 297.844C142.283 292.133 150.315 287.946 158.347 283.377C164.467 279.951 170.969 276.525 177.089 273.479C181.296 271.576 185.886 270.053 190.476 269.291C199.655 267.388 208.835 265.485 218.397 264.342C227.577 263.201 237.521 261.678 246.701 262.439C262.382 263.962 278.064 266.246 293.363 269.672C301.396 271.576 308.663 276.906 316.695 279.189C330.464 282.997 340.791 292.133 352.648 299.366C362.593 305.457 371.007 314.214 379.804 321.827C392.044 332.487 403.9 343.526 415.757 354.186C423.407 361.038 430.292 368.271 438.324 375.124C454.005 388.448 470.452 401.01 489.576 409.767C501.433 415.096 512.908 417.761 525.147 415.857C545.036 413.193 562.63 405.579 574.488 388.828C580.224 380.453 582.902 369.794 586.727 360.277C589.021 353.805 590.934 347.333 593.229 340.862C593.229 340.1 593.612 339.339 593.993 338.577C595.141 332.487 596.671 326.395 597.436 319.923C599.348 300.128 600.496 280.712 602.409 260.916C603.556 248.354 604.703 235.411 606.233 222.847C606.998 214.853 608.145 206.858 610.058 198.864C612.736 185.54 615.795 172.596 619.238 159.653C621.914 150.136 624.592 140.618 628.035 131.481C631.094 123.106 634.919 115.112 639.509 107.499C644.863 97.9809 650.601 88.4641 657.486 80.0886C672.403 61.4348 689.232 44.3037 711.415 33.6444C720.212 29.4568 729.392 26.0306 738.189 22.2237C769.935 8.13815 803.594 9.66094 836.87 11.1837C847.579 11.5644 858.669 13.4679 869.384 15.3712C875.88 16.5133 882.767 17.2747 889.271 19.1781C897.301 21.843 904.947 26.0306 912.602 29.0761C921.399 32.883 930.58 35.9285 938.993 40.1161C947.023 43.923 954.294 49.2527 961.94 53.8209C974.181 61.0541 984.887 70.9521 994.452 81.2307C1008.6 96.458 1021.23 113.208 1027.73 133.385C1030.79 143.283 1034.61 152.8 1037.67 162.698C1038.05 163.84 1037.67 165.363 1037.67 166.506C1037.67 184.398 1038.82 202.671 1037.29 220.182C1036.53 229.7 1034.23 239.598 1028.49 248.354C1025.05 253.684 1023.14 260.536 1020.08 266.246C1017.78 270.434 1015.11 274.621 1012.81 278.809C1005.16 291.372 994.835 302.031 982.978 311.168C976.858 316.117 969.97 320.304 963.091 324.492C951.234 332.105 937.842 335.913 924.459 339.719C910.684 343.907 896.918 346.191 882.384 347.333C875.88 348.094 869.759 351.902 863.264 353.424C850.256 356.089 840.694 364.084 832.28 372.839C828.073 377.027 825.778 383.499 822.718 388.828C816.981 400.249 818.893 412.05 820.04 423.091C821.953 437.557 828.837 449.739 843.372 456.591C852.933 461.159 862.113 462.302 872.061 464.205C882 466.108 891.564 467.251 901.129 466.108C925.227 462.302 949.316 463.825 973.414 462.682C990.241 461.921 1007.08 462.682 1023.9 463.825C1032.32 464.586 1040.35 468.012 1048.38 470.296C1052.97 471.438 1057.18 473.341 1061.77 474.484C1074.01 477.529 1084.71 483.621 1094.28 491.615C1105.75 501.513 1116.47 511.791 1126.41 522.832C1131.76 528.922 1134.82 537.679 1138.65 545.292C1141.71 551.003 1144.77 557.093 1147.06 563.184C1149.74 570.037 1151.27 577.651 1153.18 584.883C1157.39 598.589 1157.78 613.055 1156.62 626.76C1155.86 637.419 1152.41 647.698 1150.12 657.976C1148.98 662.545 1147.83 667.113 1146.29 671.681C1139.41 688.813 1130.23 704.42 1118.38 719.267C1107.67 732.591 1095.05 742.871 1082.42 753.53C1074.01 760.382 1063.3 764.95 1053.74 770.28C1045.71 774.468 1037.29 778.655 1028.49 782.081C1023.14 784.366 1017.02 785.888 1011.66 788.172C1005.93 790.076 1000.19 792.36 994.068 794.264C993.301 794.264 992.926 794.644 992.159 795.024C983.362 796.547 973.797 796.547 965.384 799.213C951.992 803.4 938.226 800.735 925.227 803.781C906.098 808.349 886.978 805.304 867.85 805.684C856.376 805.684 844.519 803.781 833.045 802.258C824.63 801.116 815.833 801.116 808.183 798.07C800.152 795.025 792.502 795.786 784.47 794.264C768.406 791.218 752.724 787.411 737.042 783.223C726.715 780.559 716.388 776.751 706.06 773.706C699.559 771.802 693.057 770.661 686.555 768.757C680.052 766.854 673.55 764.189 666.665 761.905C662.458 760.382 658.251 759.24 654.043 758.098C642.951 755.433 631.86 752.769 620.767 749.723C616.178 748.581 611.588 747.058 606.615 746.297C593.612 744.393 580.224 741.728 567.22 741.728C552.303 741.728 537.769 744.012 523.235 746.297C513.672 747.82 504.111 750.865 494.548 754.291C486.517 757.336 478.102 761.144 471.218 766.093C458.595 774.848 446.356 784.366 434.499 794.264C427.996 799.593 422.642 806.065 417.67 812.917C411.55 821.292 406.196 830.049 401.223 838.804C395.869 848.322 392.808 858.598 390.131 869.641C385.542 888.298 382.099 906.946 384.776 925.986C387.454 945.777 390.896 965.952 400.075 984.225C408.872 1001.36 421.112 1015.83 435.646 1027.63C444.444 1034.86 454.005 1042.1 465.863 1044.76C470.069 1045.52 474.277 1048.56 478.102 1050.47C478.484 1050.47 479.249 1051.23 480.015 1051.23C488.812 1052.76 497.609 1054.66 506.788 1055.42C517.115 1056.56 527.824 1058.08 538.151 1058.08C548.861 1058.08 559.57 1056.94 569.897 1054.66C579.842 1052.37 589.021 1047.04 598.584 1044.76C610.823 1042.1 620.767 1035.63 630.712 1029.53C638.744 1024.58 646.012 1018.11 653.279 1012.01C663.606 1003.64 673.55 994.884 683.877 985.751C691.144 979.279 697.646 972.049 704.913 965.577C712.563 958.721 720.212 951.49 728.245 945.394C739.719 936.645 751.576 928.263 763.815 920.648C772.231 915.703 781.409 911.9 790.589 908.088C799.004 904.285 807.801 900.858 816.215 897.43C821.188 895.528 826.542 894.386 831.897 893.627C851.021 890.574 870.527 887.53 889.655 890.199C901.512 891.717 913.744 893.243 924.843 897.814C949.699 908.089 973.03 921.416 989.866 943.492C995.219 950.731 1001.72 956.82 1006.69 964.05C1011.66 971.665 1015.11 980.038 1018.93 988.037C1026.96 1005.55 1030.41 1024.2 1030.41 1043.23C1030.41 1055.03 1030.79 1067.22 1029.26 1079.02C1028.11 1088.16 1023.14 1096.53 1020.84 1105.67C1017.78 1118.23 1009.37 1127.37 1003.63 1138.02C1000.57 1144.12 995.219 1149.45 990.241 1154.4C975.332 1169.24 960.414 1184.09 944.346 1198.17C932.489 1208.83 919.865 1218.73 906.865 1227.87C893.857 1236.63 882.384 1247.29 870.143 1257.18C855.609 1268.98 841.459 1281.17 829.22 1295.64C823.865 1301.72 819.276 1308.95 815.068 1315.81C810.86 1322.66 806.271 1329.51 804.358 1337.13C800.916 1349.31 799.649 1361.74 799.649 1374.43C799.649 1374.43 797.944 1423.56 880.977 1452.56C964.012 1481.55 1045.92 1468.33 1045.92 1468.33V1544.4C1045.92 1544.4 1011.51 1548.8 961.02 1544.4C926.079 1541.35 883.432 1534.08 839.164 1518.21C730.922 1479.42 721.83 1377.86 721.83 1377.86Z" fill="white"/>
<path d="M1766.9 1966.22C1767.67 1953.66 1767.67 1941.09 1769.58 1928.91C1771.11 1919.01 1775.31 1909.11 1778.76 1899.6C1781.43 1892.36 1784.11 1885.13 1787.55 1877.89C1789.85 1872.95 1792.52 1868.38 1795.97 1863.81C1805.53 1850.86 1814.71 1837.16 1825.03 1824.98C1833.45 1815.09 1844.16 1807.09 1853.72 1798.71C1864.05 1789.96 1874.37 1781.2 1885.09 1772.44C1894.65 1764.83 1904.21 1757.6 1913.77 1749.98C1923.72 1741.99 1933.66 1734.75 1943.22 1726C1955.85 1714.58 1968.09 1703.16 1979.94 1690.98C1989.12 1682.22 1995.24 1671.19 1997.54 1658.62C1999.06 1650.63 2000.97 1642.25 1999.83 1634.64C1997.91 1620.55 1993.33 1606.84 1984.53 1594.66C1978.41 1586.29 1972.29 1578.68 1963.49 1572.96C1956.99 1568.78 1950.11 1564.21 1942.84 1562.31C1932.52 1559.64 1921.42 1558.49 1911.09 1558.88C1901.91 1559.26 1892.35 1562.69 1883.17 1564.97C1878.2 1566.11 1872.85 1567.25 1868.26 1569.54C1864.43 1571.06 1860.99 1574.11 1857.16 1576.39C1852.19 1579.05 1846.84 1581.34 1842.24 1584.38C1831.54 1591.62 1820.06 1598.85 1810.5 1607.23C1797.5 1618.27 1786.02 1631.21 1773.4 1642.63C1761.16 1653.67 1748.92 1665.47 1735.54 1674.6C1719.47 1685.65 1701.88 1695.16 1684.28 1704.3C1676.64 1708.49 1667.84 1709.63 1659.8 1712.68C1648.71 1716.86 1637.62 1718.39 1626.15 1720.68C1602.05 1726 1577.57 1724.09 1553.48 1723.72C1552.33 1723.72 1551.18 1723.72 1550.42 1723.72C1540.85 1722.58 1531.67 1721.05 1522.11 1719.53C1516.37 1718.39 1510.25 1717.62 1504.9 1715.72C1494.95 1712.29 1485.01 1708.11 1475.45 1703.92C1466.27 1699.73 1457.09 1695.55 1449.06 1690.22C1432.23 1678.8 1416.55 1665.47 1403.54 1649.86C1395.51 1640.34 1387.86 1630.07 1381.74 1619.41C1376.39 1610.27 1372.56 1599.99 1369.12 1589.71C1364.91 1575.63 1361.85 1561.16 1358.03 1547.08C1352.29 1525 1354.97 1502.16 1354.97 1480.07C1354.97 1462.94 1359.55 1446.19 1364.91 1429.82C1367.59 1421.07 1369.5 1412.31 1373.71 1404.32C1379.83 1392.13 1387.09 1380.72 1394.37 1368.92C1399.33 1360.92 1404.69 1352.93 1410.81 1345.69C1419.22 1336.17 1428.02 1327.04 1437.97 1319.43C1452.88 1307.62 1468.94 1296.97 1485.01 1286.68C1490.75 1282.88 1498.01 1280.98 1504.13 1278.31C1512.54 1274.88 1520.97 1270.69 1529.38 1267.65C1535.12 1265.75 1540.85 1264.61 1546.97 1263.46C1558.06 1261.18 1569.15 1258.52 1580.24 1256.99C1588.28 1255.85 1596.7 1255.85 1605.11 1255.85C1614.29 1255.85 1623.47 1255.09 1632.65 1256.23C1644.12 1257.75 1655.6 1260.42 1667.07 1262.32C1673.96 1263.46 1680.45 1264.98 1687.34 1266.51C1694.61 1268.41 1701.88 1270.69 1709.52 1272.98C1710.67 1272.98 1711.44 1273.74 1712.58 1273.74C1721 1274.51 1729.03 1277.92 1736.68 1280.59C1742.03 1282.5 1747.4 1283.25 1752.75 1284.78C1769.19 1288.97 1786.02 1292.78 1802.47 1296.97C1812.03 1299.25 1821.97 1301.53 1831.54 1303.81C1837.66 1305.34 1844.16 1306.48 1850.28 1307.62C1857.55 1309.14 1864.82 1309.91 1872.08 1311.43C1901.91 1318.67 1931.75 1319.04 1961.97 1317.9C1973.06 1317.52 1983.76 1316.38 1994.48 1314.47C2004.8 1312.57 2015.13 1310.67 2025.07 1306.87C2043.05 1300.39 2060.64 1293.54 2077.09 1282.88C2090.86 1273.74 2102.33 1262.7 2111.52 1249.76C2119.55 1238.33 2126.43 1225.39 2124.52 1210.16C2124.14 1206.36 2124.52 1202.56 2124.52 1198.36C2124.52 1186.94 2118.78 1177.81 2113.81 1167.91C2109.22 1158.4 2102.33 1150.78 2093.92 1145.07C2087.03 1140.5 2078.62 1138.98 2071.35 1134.79C2062.94 1129.84 2053.76 1133.27 2046.11 1130.61C2033.87 1126.79 2021.63 1127.18 2010.15 1128.7C1988.36 1132.12 1966.17 1129.46 1944.37 1132.51C1936.33 1133.65 1929.07 1131.36 1921.04 1131.74C1912.62 1131.74 1904.21 1131.74 1896.18 1130.98C1889.29 1129.84 1883.17 1126.04 1876.29 1124.89C1865.57 1122.99 1856.4 1118.42 1847.22 1113.09C1837.27 1107.76 1827.71 1101.29 1820.83 1092.15C1813.18 1082.25 1806.3 1071.22 1799.41 1060.56C1797.12 1057.13 1796.35 1052.94 1795.2 1049.13C1793.67 1043.04 1793.29 1036.19 1791 1030.1C1784.11 1014.11 1787.94 997.356 1787.94 980.993C1787.94 972.995 1791.76 965.005 1794.06 957.007C1795.58 952.437 1796.35 947.491 1798.64 943.304C1803.61 934.163 1808.97 925.406 1814.71 916.658C1822.74 904.089 1834.98 895.332 1846.84 886.2C1851.81 882.388 1857.93 879.728 1863.67 877.059C1871.31 873.256 1878.97 869.828 1887 866.4C1888.91 865.641 1891.59 866.4 1893.88 865.641C1902.68 863.356 1911.86 861.071 1920.66 858.786C1923.33 858.027 1926.4 858.786 1929.46 858.027C1945.9 856.884 1961.2 851.175 1974.97 843.181C1988.74 835.186 1996 821.862 2002.51 807.396C2005.57 800.544 2004.8 794.072 2006.34 787.6C2008.24 779.605 2006.34 771.23 2005.18 763.997C2003.28 755.241 1998.68 746.866 1994.09 738.871C1988.74 729.354 1981.85 720.979 1972.67 714.888C1963.49 708.797 1955.08 701.945 1945.13 697.376C1933.66 691.666 1921.42 687.479 1909.94 682.91C1909.56 682.91 1909.18 682.91 1908.8 682.91C1899.24 681.387 1889.29 679.103 1879.73 678.723C1864.43 677.961 1849.13 677.581 1833.83 678.723C1821.97 679.864 1810.88 683.29 1799.41 688.621C1785.64 695.473 1774.17 704.609 1764.99 716.03C1759.25 722.882 1755.42 731.258 1750.83 739.252C1747.77 745.343 1745.09 751.435 1742.8 757.906C1740.51 764.378 1737.83 771.23 1736.68 778.083C1733.62 794.072 1731.33 810.442 1729.42 826.811C1727.88 838.993 1726.74 851.175 1725.59 863.356C1724.44 876.684 1723.68 890.386 1721.76 903.714C1720.24 915.515 1717.18 927.316 1714.88 938.734C1713.35 947.107 1712.97 956.248 1710.29 964.238C1704.17 980.226 1699.2 996.597 1690.4 1011.83C1680.84 1027.43 1669.36 1040.76 1655.6 1052.56C1647.57 1059.41 1637.62 1063.6 1628.06 1068.93C1613.52 1076.55 1597.46 1079.97 1581.78 1082.25C1568.39 1084.16 1554.24 1082.25 1540.09 1080.73C1533.58 1080.35 1527.46 1078.45 1521.34 1076.55C1514.08 1074.26 1506.81 1071.59 1499.93 1068.17C1493.81 1065.12 1487.69 1061.7 1481.95 1057.89C1475.83 1054.09 1470.09 1050.66 1464.36 1046.47C1454.79 1039.24 1444.85 1032.38 1435.67 1024.39C1422.28 1012.97 1409.28 1000.41 1395.89 988.608C1382.88 977.182 1369.88 965.38 1356.49 954.338C1348.46 947.875 1340.05 940.635 1330.48 936.832C1310.21 929.218 1288.79 924.264 1267 931.503C1262.4 933.021 1257.43 933.788 1252.46 935.306C1234.87 941.403 1220.72 950.919 1211.15 967.666C1205.8 977.182 1202.74 987.081 1199.68 997.356C1196.24 1008.78 1196.24 1019.44 1197 1030.48C1197.39 1038.47 1201.21 1046.09 1203.88 1053.7C1205.03 1057.51 1206.18 1061.32 1207.71 1065.12C1212.68 1075.02 1217.27 1085.3 1223.01 1094.82C1228.75 1104.33 1235.25 1113.47 1240.99 1122.99C1248.25 1134.79 1256.29 1146.21 1263.17 1158.01C1270.06 1169.81 1276.18 1181.61 1282.68 1193.41C1287.65 1202.56 1290.33 1212.45 1293.77 1222.35C1301.42 1245.95 1304.48 1269.55 1303.33 1293.92C1302.57 1306.87 1299.89 1319.8 1297.59 1332.74C1296.45 1339.6 1294.91 1346.83 1293 1353.3C1291.48 1359.02 1288.79 1364.73 1286.5 1370.43C1284.97 1375 1283.82 1379.96 1281.53 1384.14C1277.32 1392.89 1272.73 1401.65 1268.14 1410.03C1263.17 1418.41 1258.2 1426.78 1252.85 1434.78C1249.4 1440.11 1244.81 1444.67 1240.99 1450C1228.75 1465.99 1213.83 1478.93 1197.39 1490.36C1185.91 1498.35 1173.67 1505.96 1161.05 1512.82C1151.87 1518.14 1141.55 1521.95 1131.6 1525.76C1126.24 1528.04 1120.51 1529.19 1114.77 1530.7C1107.5 1532.99 1100.24 1535.66 1093.35 1537.94C1092.58 1537.94 1092.2 1537.94 1091.44 1537.94C1079.2 1539.46 1066.96 1541.36 1054.72 1542.89C1051.66 1543.27 1048.6 1543.65 1045.92 1544.42C1045.92 1518.9 1045.92 1493.78 1045.92 1468.27C1054.33 1466.75 1062.36 1465.99 1070.79 1464.08C1078.05 1462.18 1084.94 1459.52 1091.82 1457.24C1095.64 1456.09 1099.85 1454.95 1104.06 1453.43C1112.09 1450 1120.51 1446.95 1128.15 1442.77C1136.18 1438.58 1144.22 1433.63 1151.87 1428.31C1164.49 1419.55 1175.97 1408.89 1185.15 1396.32C1191.27 1387.95 1198.91 1379.96 1203.12 1370.43C1209.24 1357.11 1215.74 1344.17 1219.57 1330.08C1225.3 1308.77 1227.21 1287.07 1225.3 1265.36C1224.15 1250.9 1219.57 1237.19 1212.3 1224.63C1206.56 1214.73 1202.36 1203.7 1196.24 1194.17C1188.59 1181.61 1179.79 1169.81 1171.76 1157.63C1166.4 1149.25 1160.67 1140.88 1155.7 1132.51C1148.42 1119.56 1141.16 1106.24 1134.27 1092.92C1131.98 1088.72 1131.21 1083.39 1129.69 1078.83C1127.39 1072.36 1125.09 1065.89 1122.8 1059.03C1122.8 1058.27 1122.8 1057.89 1122.8 1057.13C1121.65 1042.28 1119.36 1027.43 1119.36 1012.21C1119.36 1002.69 1120.89 992.794 1123.18 983.278C1126.24 970.71 1129.3 957.766 1134.66 946.348C1140.78 932.646 1146.9 918.176 1159.14 907.901C1166.79 901.045 1173.29 892.672 1180.94 886.2C1188.21 880.487 1196.24 876.3 1204.27 871.73C1210.39 868.31 1216.89 864.882 1223.01 861.838C1227.21 859.928 1231.81 858.411 1236.39 857.643C1245.57 855.742 1254.76 853.84 1264.32 852.698C1273.5 851.556 1283.44 850.033 1292.62 850.794C1308.3 852.317 1323.99 854.599 1339.28 858.027C1347.32 859.928 1354.58 865.258 1362.61 867.543C1376.39 871.354 1386.71 880.487 1398.57 887.717C1408.52 893.814 1416.93 902.571 1425.73 910.186C1437.97 920.844 1449.82 931.878 1461.68 942.537C1469.33 949.392 1476.21 956.623 1484.24 963.479C1499.93 976.806 1516.37 989.367 1535.5 998.124C1547.36 1003.45 1558.83 1006.11 1571.07 1004.21C1590.96 1001.55 1608.55 993.937 1620.41 977.182C1626.15 968.808 1628.82 958.15 1632.65 948.634C1634.94 942.162 1636.85 935.69 1639.15 929.218C1639.15 928.459 1639.53 927.691 1639.91 926.933C1641.06 920.844 1642.59 914.748 1643.36 908.276C1645.27 888.485 1646.42 869.069 1648.33 849.271C1649.48 836.709 1650.62 823.766 1652.15 811.202C1652.92 803.208 1654.06 795.213 1655.98 787.219C1658.66 773.895 1661.72 760.952 1665.16 748.008C1667.84 738.491 1670.52 728.973 1673.96 719.837C1677.02 711.462 1680.84 703.468 1685.43 695.854C1690.79 686.336 1696.52 676.819 1703.41 668.444C1718.32 649.79 1735.15 632.659 1757.33 622C1766.13 617.812 1775.31 614.385 1784.11 610.579C1815.85 596.493 1849.52 598.016 1882.79 599.539C1893.5 599.92 1904.59 601.823 1915.31 603.727C1921.8 604.869 1928.69 605.63 1935.19 607.533C1943.22 610.198 1950.87 614.385 1958.52 617.431C1967.32 621.238 1976.5 624.283 1984.91 628.471C1992.94 632.278 2000.21 637.608 2007.86 642.176C2020.1 649.41 2030.81 659.308 2040.37 669.586C2054.52 684.813 2067.15 701.564 2073.65 721.741C2076.71 731.639 2080.53 741.156 2083.59 751.054C2083.97 752.195 2083.59 753.718 2083.59 754.861C2083.59 772.753 2084.74 791.026 2083.21 808.538C2082.45 818.055 2080.15 827.953 2074.41 836.709C2070.97 842.039 2069.06 848.891 2066 854.599C2063.7 858.786 2061.03 862.972 2058.73 867.168C2051.08 879.728 2040.76 890.386 2028.9 899.519C2022.78 904.473 2015.89 908.66 2009.01 912.846C1997.15 920.461 1983.76 924.264 1970.38 928.075C1956.6 932.262 1942.84 934.547 1928.3 935.69C1921.8 936.449 1915.68 940.26 1909.18 941.778C1896.18 944.447 1886.61 952.437 1878.2 961.194C1874 965.38 1871.7 971.852 1868.64 977.182C1862.9 988.608 1864.82 1000.41 1865.96 1011.44C1867.88 1025.91 1874.76 1038.1 1889.29 1044.94C1898.85 1049.52 1908.03 1050.66 1917.98 1052.56C1927.92 1054.46 1937.49 1055.6 1947.05 1054.46C1971.15 1050.66 1995.24 1052.18 2019.33 1051.04C2036.16 1050.27 2053 1051.04 2069.82 1052.18C2078.24 1052.94 2086.27 1056.37 2094.31 1058.65C2098.89 1059.79 2103.1 1061.7 2107.69 1062.84C2119.93 1065.89 2130.64 1071.98 2140.2 1079.97C2151.67 1089.86 2162.39 1100.15 2172.33 1111.19C2177.68 1117.28 2180.74 1126.04 2184.57 1133.65C2187.63 1139.35 2190.69 1145.45 2192.98 1151.54C2195.66 1158.4 2197.19 1166.01 2199.1 1173.24C2203.31 1186.94 2203.7 1201.41 2202.55 1215.12C2201.78 1225.77 2198.33 1236.05 2196.04 1246.33C2194.9 1250.9 2193.75 1255.47 2192.21 1260.04C2185.34 1277.17 2176.15 1292.78 2164.3 1307.62C2153.59 1320.94 2140.97 1331.23 2128.34 1341.89C2119.93 1348.74 2109.22 1353.3 2099.66 1358.63C2091.63 1362.82 2083.21 1367.01 2074.41 1370.43C2069.06 1372.72 2062.94 1374.24 2057.58 1376.53C2051.85 1378.43 2046.11 1380.72 2039.99 1382.62C2039.22 1382.62 2038.85 1383 2038.08 1383.38C2029.28 1384.9 2019.72 1384.9 2011.3 1387.56C1997.91 1391.76 1984.15 1389.09 1971.15 1392.13C1952.02 1396.7 1932.9 1393.66 1913.77 1394.04C1902.3 1394.04 1890.44 1392.13 1878.97 1390.62C1870.55 1389.47 1861.76 1389.47 1854.1 1386.43C1846.07 1383.38 1838.43 1384.14 1830.39 1382.62C1814.33 1379.57 1798.64 1375.76 1782.97 1371.58C1772.64 1368.92 1762.31 1365.1 1751.98 1362.06C1745.48 1360.16 1738.97 1359.02 1732.48 1357.11C1725.97 1355.21 1719.47 1352.54 1712.58 1350.26C1708.38 1348.74 1704.17 1347.6 1699.97 1346.46C1688.87 1343.79 1677.78 1341.13 1666.69 1338.07C1662.1 1336.94 1657.51 1335.41 1652.54 1334.65C1639.53 1332.74 1626.15 1330.08 1613.14 1330.08C1598.22 1330.08 1583.69 1332.37 1569.15 1334.65C1559.59 1336.17 1550.03 1339.22 1540.47 1342.64C1532.44 1345.69 1524.03 1349.5 1517.14 1354.45C1504.51 1363.2 1492.27 1372.72 1480.42 1382.62C1473.92 1387.95 1468.56 1394.42 1463.59 1401.28C1457.47 1409.65 1452.12 1418.41 1447.15 1427.16C1441.79 1436.68 1438.73 1446.95 1436.05 1458C1431.46 1476.65 1428.02 1495.3 1430.7 1514.34C1433.37 1534.13 1436.82 1554.31 1446 1572.58C1454.79 1589.71 1467.03 1604.18 1481.57 1615.98C1490.36 1623.21 1499.93 1630.45 1511.79 1633.11C1515.99 1633.87 1520.2 1636.92 1524.03 1638.83C1524.4 1638.83 1525.17 1639.58 1525.94 1639.58C1534.73 1641.11 1543.53 1643.01 1552.71 1643.77C1563.03 1644.91 1573.75 1646.44 1584.07 1646.44C1594.78 1646.44 1605.49 1645.3 1615.82 1643.01C1625.76 1640.73 1634.94 1635.4 1644.51 1633.11C1656.74 1630.45 1666.69 1623.98 1676.64 1617.88C1684.67 1612.94 1691.93 1606.47 1699.2 1600.37C1709.52 1592 1719.47 1583.24 1729.8 1574.11C1737.06 1567.63 1743.57 1560.4 1750.83 1553.93C1758.49 1547.08 1766.13 1539.85 1774.17 1533.75C1785.64 1525 1797.5 1516.62 1809.73 1509C1818.15 1504.06 1827.33 1500.26 1836.51 1496.44C1844.92 1492.64 1853.72 1489.21 1862.14 1485.79C1867.11 1483.88 1872.46 1482.74 1877.82 1481.98C1896.94 1478.93 1916.45 1475.89 1935.58 1478.55C1947.43 1480.07 1959.67 1481.6 1970.76 1486.17C1995.62 1496.44 2018.95 1509.77 2035.79 1531.85C2041.14 1539.09 2047.64 1545.17 2052.61 1552.41C2057.58 1560.02 2061.03 1568.39 2064.85 1576.39C2072.88 1593.91 2076.33 1612.55 2076.33 1631.59C2076.33 1643.39 2076.71 1655.57 2075.18 1667.37C2074.03 1676.51 2069.06 1684.89 2066.76 1694.02C2063.7 1706.59 2055.29 1715.72 2049.55 1726.38C2046.49 1732.48 2041.14 1737.81 2036.16 1742.75C2021.25 1757.6 2006.34 1772.44 1990.27 1786.53C1978.41 1797.19 1965.79 1807.09 1952.79 1816.23C1939.78 1824.98 1928.3 1835.64 1916.06 1845.53C1901.53 1857.34 1887.38 1869.52 1875.14 1883.99C1869.79 1890.08 1865.2 1897.31 1860.99 1904.17C1856.78 1911.01 1852.19 1917.87 1850.28 1925.48C1846.84 1937.67 1845.3 1950.23 1843.01 1962.79C1843.01 1962.79 1838.2 2047.73 1979.94 2080.56C2121.68 2113.39 2218.43 2108.7 2218.43 2108.7V2182.88C2218.43 2182.88 2089.28 2188.85 1929.03 2148.35C1768.77 2107.85 1768.77 1980.37 1768.77 1980.37L1766.9 1966.22Z" fill="white"/>
</g>
<defs>
<clipPath id="clip0_245_451">
<rect width="2218" height="2188" fill="white"/>
</clipPath>
</defs>
</svg>
