<svg width="39" height="28" viewBox="0 0 39 28" fill="none" xmlns="http://www.w3.org/2000/svg">
<path d="M8.911 10.75C10.4685 10.75 11.9911 11.2119 13.2861 12.0772C14.5812 12.9425 15.5905 14.1724 16.1866 15.6114C16.7826 17.0503 16.9385 18.6337 16.6347 20.1613C16.3308 21.6889 15.5808 23.0921 14.4795 24.1935C13.3781 25.2948 11.9749 26.0448 10.4473 26.3487C8.91974 26.6525 7.33634 26.4966 5.89737 25.9006C4.4584 25.3045 3.22849 24.2952 2.36318 23.0001C1.49786 21.7051 1.036 20.1825 1.036 18.625L1 17.5C1 13.3228 2.65937 9.31677 5.61307 6.36307C8.56677 3.40937 12.5728 1.75 16.75 1.75V6.25C15.272 6.24603 13.8078 6.5351 12.4422 7.1005C11.0766 7.6659 9.83664 8.49641 8.794 9.544C8.3887 9.94841 8.01486 10.3832 7.67575 10.8445C8.07925 10.78 8.49025 10.7478 8.90875 10.7478L8.911 10.75ZM29.161 10.75C30.7185 10.75 32.2411 11.2119 33.5361 12.0772C34.8312 12.9425 35.8405 14.1724 36.4366 15.6114C37.0326 17.0503 37.1885 18.6337 36.8847 20.1613C36.5808 21.6889 35.8308 23.0921 34.7295 24.1935C33.6281 25.2948 32.2249 26.0448 30.6973 26.3487C29.1697 26.6525 27.5863 26.4966 26.1474 25.9006C24.7084 25.3045 23.4785 24.2952 22.6132 23.0001C21.7479 21.7051 21.286 20.1825 21.286 18.625L21.25 17.5C21.25 13.3228 22.9094 9.31677 25.8631 6.36307C28.8168 3.40937 32.8228 1.75 37 1.75V6.25C35.522 6.24603 34.0578 6.5351 32.6922 7.1005C31.3266 7.6659 30.0866 8.49641 29.044 9.544C28.6387 9.94841 28.2649 10.3832 27.9258 10.8445C28.3293 10.78 28.741 10.75 29.161 10.75Z" fill="#183668"/>
</svg>
